<?xml version="1.0" encoding="utf-8"?>
<!DOCTYPE svg PUBLIC "-//W3C//DTD SVG 1.1//EN" "http://www.w3.org/Graphics/SVG/1.1/DTD/svg11.dtd">
<svg version="1.1" id="features_icon_joomla" xmlns="http://www.w3.org/2000/svg" xmlns:xlink="http://www.w3.org/1999/xlink" x="0px"
	 y="0px" width="25px" height="21px" viewBox="0 0 25 21" enable-background="new 0 0 25 21" xml:space="preserve">
<g>
	<path id="path174" fill="#95D333" d="M3.219,9.735L2.886,9.402c-1.034-1.034-1.354-2.511-0.962-3.82
		C0.89,5.348,0.118,4.424,0.118,3.319C0.118,2.039,1.156,1,2.437,1C3.59,1.002,4.545,1.842,4.725,2.943
		C5.976,2.651,7.345,2.992,8.32,3.967l0.134,0.133l-1.711,1.71L6.609,5.677C6.055,5.123,5.153,5.123,4.599,5.678
		c-0.557,0.558-0.556,1.46-0.004,2.013L4.93,8.025l1.711,1.709l1.81,1.809l-1.709,1.711l-1.811-1.811L3.219,9.735"/>
	<path id="path176" fill="#FFC248" d="M5.133,7.823l1.812-1.811l1.711-1.709L8.99,3.97c1.03-1.03,2.498-1.354,3.803-0.971
		C12.949,1.87,13.916,1,15.09,1c1.28,0,2.32,1.038,2.32,2.319c0,1.176-0.877,2.149-2.015,2.299c0.373,1.3,0.049,2.756-0.976,3.781
		l-0.134,0.134l-1.71-1.712l0.133-0.132c0.557-0.555,0.557-1.456,0-2.011c-0.554-0.554-1.451-0.555-2.007,0.003l-0.334,0.333
		l-1.711,1.71l-1.811,1.81L5.133,7.823"/>
	<path id="path184" fill="#E23333" d="M12.838,16.457c-1.318,0.402-2.806,0.086-3.85-0.957l-0.13-0.131l1.711-1.711l0.131,0.133
		c0.555,0.555,1.457,0.555,2.01,0.002c0.554-0.555,0.557-1.453-0.003-2.011l-0.333-0.335l-1.71-1.712L8.857,7.928l1.712-1.71
		l1.805,1.807l1.707,1.711l0.337,0.337c0.981,0.983,1.322,2.366,1.016,3.626c1.127,0.158,1.993,1.125,1.993,2.295
		c0,1.283-1.039,2.32-2.319,2.32C13.988,18.312,13.054,17.516,12.838,16.457"/>
	<path id="path186" fill="#4C7FD8" d="M12.172,11.65l-1.806,1.807l-1.709,1.709L8.32,15.502c-0.988,0.99-2.38,1.326-3.645,1.012
		c-0.235,1.029-1.159,1.799-2.26,1.799c-1.28,0-2.319-1.039-2.319-2.318c0-1.096,0.762-2.014,1.784-2.258
		c-0.324-1.27,0.012-2.673,1.006-3.667l0.132-0.132l1.711,1.711L4.595,11.78c-0.555,0.556-0.555,1.455,0.001,2.013
		c0.558,0.555,1.46,0.553,2.014,0l0.335-0.334l1.709-1.709l1.808-1.81L12.172,11.65"/>
</g>
</svg>
