<?xml version="1.0" encoding="utf-8"?>
<!DOCTYPE svg PUBLIC "-//W3C//DTD SVG 1.1//EN" "http://www.w3.org/Graphics/SVG/1.1/DTD/svg11.dtd">
<svg version="1.1" id="features_icon_wordpress" xmlns="http://www.w3.org/2000/svg" xmlns:xlink="http://www.w3.org/1999/xlink" x="0px" y="0px"
	 width="24px" height="21px" viewBox="0 0 24 21" enable-background="new 0 0 24 21" xml:space="preserve">
<g>
	<g>
		<path fill="#2C89C5" d="M1.369,10.5c0,3.27,1.9,6.096,4.658,7.436L2.084,7.137C1.625,8.163,1.369,9.302,1.369,10.5z"/>
		<path fill="#2C89C5" d="M15.209,10.083c0-1.023-0.363-1.729-0.68-2.281c-0.42-0.681-0.811-1.256-0.811-1.938
			c0-0.759,0.575-1.466,1.386-1.466c0.037,0,0.071,0.005,0.108,0.007c-1.473-1.346-3.43-2.169-5.582-2.169
			c-2.885,0-5.425,1.481-6.904,3.726c0.193,0.005,0.377,0.01,0.531,0.01c0.864,0,2.202-0.106,2.202-0.106
			c0.448-0.026,0.501,0.627,0.056,0.679c0,0-0.448,0.054-0.945,0.08l3.01,8.95l1.807-5.422L8.1,6.625
			C7.656,6.598,7.234,6.546,7.234,6.546C6.789,6.52,6.841,5.839,7.287,5.865c0,0,1.363,0.106,2.177,0.106
			c0.862,0,2.202-0.106,2.202-0.106c0.446-0.026,0.497,0.627,0.054,0.681c0,0-0.448,0.052-0.949,0.078l2.986,8.884l0.827-2.757
			C14.938,11.608,15.209,10.791,15.209,10.083z"/>
		<path fill="#2C89C5" d="M9.777,11.223l-2.479,7.202c0.74,0.223,1.523,0.338,2.333,0.338c0.963,0,1.887-0.165,2.743-0.468
			c-0.021-0.035-0.042-0.071-0.059-0.113L9.777,11.223z"/>
		<path fill="#2C89C5" d="M16.885,6.534c0.034,0.265,0.056,0.546,0.056,0.85c0,0.837-0.156,1.781-0.628,2.959l-2.523,7.299
			c2.456-1.434,4.109-4.095,4.109-7.143C17.896,9.062,17.53,7.712,16.885,6.534z"/>
		<path fill="#2C89C5" d="M9.633,0.867C4.321,0.867,0,5.187,0,10.5c0,5.312,4.321,9.634,9.633,9.634c5.31,0,9.633-4.321,9.633-9.634
			C19.266,5.187,14.942,0.867,9.633,0.867z M9.633,19.69c-5.067,0-9.192-4.124-9.192-9.19c0-5.07,4.124-9.192,9.192-9.192
			c5.067,0,9.189,4.123,9.189,9.192C18.822,15.566,14.7,19.69,9.633,19.69z"/>
	</g>
</g>
</svg>
