<?xml version="1.0" encoding="utf-8"?>
<!DOCTYPE svg PUBLIC "-//W3C//DTD SVG 1.1//EN" "http://www.w3.org/Graphics/SVG/1.1/DTD/svg11.dtd">
<svg version="1.1" id="features_uikit" xmlns="http://www.w3.org/2000/svg" xmlns:xlink="http://www.w3.org/1999/xlink" x="0px" y="0px"
	 width="200px" height="200px" viewBox="0 0 200 200" enable-background="new 0 0 200 200" xml:space="preserve">
<path fill="#444444" d="M181,151.182C181,167.098,168.098,180,152.182,180H49.715c-15.916,0-28.819-12.902-28.819-28.818V48.715
	c0-15.916,12.903-28.819,28.819-28.819h102.466c15.916,0,28.818,12.903,28.818,28.819V151.182z"/>
<g>
	<path fill="#FFFFFF" d="M81.873,100.229c0,3.452-0.905,6.063-2.716,7.83c-1.811,1.771-4.47,2.653-7.978,2.653h-4.925V90.141h5.558
		c3.284,0,5.782,0.858,7.494,2.575S81.873,96.937,81.873,100.229z M80.312,100.286c0-2.946-0.748-5.162-2.244-6.649
		c-1.497-1.486-3.694-2.229-6.593-2.229h-3.785v18.039h3.405C77.239,109.446,80.312,106.393,80.312,100.286z"/>
	<path fill="#FFFFFF" d="M92.427,110.994c-2.223,0-3.956-0.685-5.199-2.054c-1.243-1.37-1.864-3.288-1.864-5.756
		c0-2.438,0.601-4.393,1.801-5.86c1.201-1.469,2.819-2.202,4.854-2.202c1.802,0,3.223,0.628,4.265,1.885
		c1.041,1.258,1.562,2.965,1.562,5.122v1.126H86.826c0.02,2.102,0.51,3.706,1.471,4.812c0.962,1.107,2.339,1.66,4.13,1.66
		c0.873,0,1.641-0.061,2.3-0.183c0.663-0.122,1.5-0.385,2.513-0.788v1.267c-0.862,0.375-1.66,0.632-2.392,0.767
		C94.115,110.927,93.309,110.994,92.427,110.994z M92.019,96.36c-1.473,0-2.654,0.485-3.546,1.456
		c-0.891,0.971-1.411,2.371-1.562,4.2h9.456c0-1.772-0.385-3.159-1.154-4.158C94.444,96.859,93.379,96.36,92.019,96.36z"/>
	<path fill="#FFFFFF" d="M121.176,110.713V100.68c0-1.491-0.291-2.579-0.873-3.265c-0.581-0.685-1.473-1.027-2.674-1.027
		c-1.566,0-2.725,0.432-3.476,1.295c-0.75,0.863-1.125,2.219-1.125,4.066v8.964h-1.422v-10.455c0-2.58-1.182-3.87-3.546-3.87
		c-1.604,0-2.772,0.467-3.504,1.4s-1.098,2.428-1.098,4.482v8.442h-1.393V95.417h1.153l0.296,2.097h0.084
		c0.423-0.76,1.022-1.349,1.802-1.766c0.778-0.418,1.637-0.626,2.575-0.626c2.41,0,3.958,0.905,4.644,2.716h0.056
		c0.497-0.873,1.165-1.544,2.005-2.013s1.795-0.703,2.864-0.703c1.67,0,2.922,0.445,3.757,1.336c0.835,0.892,1.253,2.309,1.253,4.25
		v10.005H121.176z"/>
	<path fill="#FFFFFF" d="M140.158,103.044c0,2.495-0.605,4.443-1.815,5.848c-1.21,1.4-2.88,2.103-5.01,2.103
		c-1.341,0-2.523-0.323-3.546-0.971s-1.806-1.576-2.35-2.786s-0.816-2.608-0.816-4.193c0-2.495,0.605-4.439,1.815-5.833
		c1.21-1.393,2.87-2.089,4.981-2.089c2.101,0,3.749,0.705,4.946,2.117C139.56,98.651,140.158,100.586,140.158,103.044z
		 M128.085,103.044c0,2.102,0.461,3.74,1.387,4.919c0.922,1.176,2.229,1.765,3.918,1.765s2.994-0.589,3.918-1.765
		c0.924-1.179,1.387-2.817,1.387-4.919c0-2.11-0.468-3.748-1.399-4.911c-0.935-1.163-2.245-1.745-3.934-1.745
		s-2.989,0.58-3.905,1.738C128.543,99.284,128.085,100.924,128.085,103.044z"/>
</g>
</svg>
