<?xml version="1.0" encoding="utf-8"?>
<!DOCTYPE svg PUBLIC "-//W3C//DTD SVG 1.1//EN" "http://www.w3.org/Graphics/SVG/1.1/DTD/svg11.dtd">
<svg version="1.1" id="features_icon_warp" xmlns="http://www.w3.org/2000/svg" xmlns:xlink="http://www.w3.org/1999/xlink" x="0px"
	 y="0px" width="150px" height="150px" viewBox="-378.5 301.5 150 150" enable-background="new -378.5 301.5 150 150"
	 xml:space="preserve">
<path fill="#444444" d="M-246.5,412.799c0,11.433-9.268,20.701-20.701,20.701H-340.8c-11.432,0-20.7-9.269-20.7-20.701v-73.598
	c0-11.433,9.269-20.701,20.7-20.701h73.6c11.433,0,20.699,9.269,20.699,20.701V412.799L-246.5,412.799z"/>
<g>
	<path fill="#FFFFFF" d="M-317.286,376.256c0,2.494-0.654,4.383-1.963,5.658c-1.309,1.279-3.23,1.92-5.766,1.92h-3.561v-14.869
		h4.017c2.374,0,4.18,0.619,5.416,1.859C-317.905,372.066-317.286,373.875-317.286,376.256z M-318.416,376.297
		c0-2.129-0.54-3.73-1.622-4.807c-1.082-1.074-2.67-1.611-4.766-1.611h-2.734v13.041h2.461
		C-320.637,382.92-318.416,380.711-318.416,376.297z"/>
	<path fill="#FFFFFF" d="M-309.658,384.035c-1.607,0-2.859-0.496-3.759-1.482c-0.899-0.99-1.348-2.377-1.348-4.16
		c0-1.764,0.434-3.176,1.302-4.238c0.868-1.061,2.037-1.59,3.508-1.59c1.302,0,2.33,0.455,3.082,1.363
		c0.752,0.906,1.129,2.143,1.129,3.701v0.812h-7.962c0.014,1.518,0.368,2.678,1.062,3.479c0.694,0.803,1.689,1.199,2.985,1.199
		c0.631,0,1.185-0.043,1.663-0.131c0.479-0.088,1.083-0.277,1.815-0.568v0.916c-0.624,0.27-1.2,0.455-1.729,0.553
		C-308.438,383.988-309.021,384.035-309.658,384.035z M-309.954,373.459c-1.064,0-1.918,0.352-2.562,1.055
		c-0.645,0.701-1.021,1.713-1.13,3.035h6.835c0-1.281-0.278-2.283-0.835-3.006C-308.203,373.822-308.971,373.459-309.954,373.459z"
		/>
	<path fill="#FFFFFF" d="M-288.881,383.834v-7.254c0-1.076-0.21-1.861-0.631-2.357c-0.42-0.496-1.064-0.744-1.932-0.744
		c-1.135,0-1.971,0.312-2.514,0.938c-0.542,0.623-0.812,1.604-0.812,2.939v6.479h-1.027v-7.559c0-1.863-0.854-2.795-2.562-2.795
		c-1.16,0-2.004,0.338-2.531,1.012c-0.529,0.674-0.795,1.754-0.795,3.24v6.102h-1.006v-11.057h0.834l0.213,1.518h0.062
		c0.305-0.551,0.738-0.975,1.303-1.275c0.562-0.303,1.182-0.453,1.859-0.453c1.743,0,2.861,0.654,3.355,1.963h0.041
		c0.359-0.631,0.842-1.115,1.447-1.455c0.607-0.34,1.299-0.508,2.07-0.508c1.207,0,2.111,0.322,2.716,0.967s0.903,1.668,0.903,3.07
		v7.23H-288.881L-288.881,383.834z"/>
	<path fill="#FFFFFF" d="M-275.161,378.289c0,1.807-0.438,3.213-1.313,4.229c-0.875,1.012-2.08,1.518-3.619,1.518
		c-0.971,0-1.824-0.23-2.563-0.699c-0.737-0.469-1.305-1.141-1.698-2.014c-0.394-0.875-0.59-1.887-0.59-3.031
		c0-1.805,0.438-3.209,1.312-4.215c0.875-1.008,2.074-1.512,3.601-1.512c1.519,0,2.71,0.512,3.575,1.531
		C-275.594,375.115-275.161,376.514-275.161,378.289z M-283.889,378.289c0,1.52,0.334,2.703,1.002,3.557
		c0.666,0.85,1.613,1.275,2.832,1.275c1.221,0,2.164-0.426,2.832-1.275c0.668-0.854,1.002-2.037,1.002-3.557
		c0-1.523-0.338-2.709-1.012-3.549c-0.676-0.84-1.623-1.26-2.843-1.26c-1.221,0-2.161,0.418-2.823,1.254
		C-283.559,375.572-283.889,376.758-283.889,378.289z"/>
</g>
</svg>
