<?xml version="1.0" encoding="utf-8"?>
<!DOCTYPE svg PUBLIC "-//W3C//DTD SVG 1.1//EN" "http://www.w3.org/Graphics/SVG/1.1/DTD/svg11.dtd">
<svg version="1.1" id="home_logo_html5" xmlns="http://www.w3.org/2000/svg" xmlns:xlink="http://www.w3.org/1999/xlink" x="0px" y="0px"
	 width="100px" height="100px" viewBox="0 0 100 100" enable-background="new 0 0 100 100" xml:space="preserve">
<path fill="#444444" d="M100,82c0,9.941-8.059,18-18,18H18c-9.941,0-18-8.059-18-18V18C0,8.059,8.059,0,18,0h64
	c9.941,0,18,8.059,18,18V82z"/>
<g>
	<path fill="#FFFFFF" d="M38.086,50.176c0,2.156-0.565,3.787-1.696,4.891c-1.131,1.105-2.792,1.657-4.983,1.657H28.33v-12.85h3.472
		c2.051,0,3.611,0.536,4.68,1.608S38.086,48.119,38.086,50.176z M37.11,50.211c0-1.84-0.467-3.224-1.402-4.153
		s-2.307-1.393-4.118-1.393h-2.364v11.268h2.127C35.191,55.933,37.11,54.025,37.11,50.211z"/>
	<path fill="#FFFFFF" d="M44.678,56.899c-1.389,0-2.471-0.428-3.248-1.283s-1.165-2.054-1.165-3.595
		c0-1.523,0.375-2.744,1.125-3.661s1.761-1.375,3.032-1.375c1.125,0,2.013,0.393,2.663,1.178s0.976,1.852,0.976,3.199v0.703H41.18
		c0.012,1.312,0.318,2.314,0.918,3.006s1.46,1.037,2.58,1.037c0.545,0,1.024-0.038,1.437-0.114c0.414-0.076,0.937-0.24,1.569-0.492
		v0.791c-0.539,0.234-1.037,0.395-1.494,0.479C45.732,56.857,45.229,56.899,44.678,56.899z M44.423,47.759
		c-0.92,0-1.658,0.303-2.215,0.91s-0.882,1.481-0.976,2.624h5.906c0-1.107-0.24-1.973-0.721-2.597S45.272,47.759,44.423,47.759z"/>
	<path fill="#FFFFFF" d="M62.634,56.724v-6.267c0-0.932-0.182-1.611-0.545-2.039s-0.92-0.642-1.67-0.642
		c-0.979,0-1.702,0.27-2.171,0.809s-0.703,1.386-0.703,2.54v5.599h-0.888v-6.53c0-1.611-0.738-2.417-2.215-2.417
		c-1.002,0-1.731,0.292-2.188,0.875s-0.686,1.516-0.686,2.799v5.273h-0.87V47.17h0.721l0.185,1.31h0.053
		c0.264-0.475,0.639-0.842,1.125-1.103s1.022-0.391,1.608-0.391c1.506,0,2.473,0.565,2.9,1.696h0.035
		c0.311-0.545,0.728-0.964,1.252-1.257s1.121-0.439,1.789-0.439c1.043,0,1.825,0.278,2.347,0.835s0.782,1.441,0.782,2.654v6.249
		H62.634z"/>
	<path fill="#FFFFFF" d="M74.49,51.934c0,1.559-0.378,2.775-1.134,3.652c-0.756,0.875-1.799,1.313-3.129,1.313
		c-0.838,0-1.576-0.202-2.215-0.606s-1.128-0.984-1.468-1.74s-0.51-1.629-0.51-2.619c0-1.559,0.378-2.773,1.134-3.643
		s1.793-1.305,3.111-1.305c1.312,0,2.342,0.441,3.09,1.323C74.116,49.19,74.49,50.398,74.49,51.934z M66.949,51.934
		c0,1.312,0.288,2.336,0.866,3.072c0.576,0.734,1.393,1.103,2.447,1.103s1.87-0.368,2.447-1.103c0.577-0.736,0.866-1.76,0.866-3.072
		c0-1.318-0.292-2.341-0.874-3.067c-0.584-0.727-1.402-1.09-2.457-1.09s-1.867,0.362-2.439,1.085
		C67.235,49.585,66.949,50.609,66.949,51.934z"/>
</g>
</svg>
