<?xml version="1.0" encoding="utf-8"?>
<!DOCTYPE svg PUBLIC "-//W3C//DTD SVG 1.1//EN" "http://www.w3.org/Graphics/SVG/1.1/DTD/svg11.dtd">
<svg version="1.1" id="logo_small" xmlns="http://www.w3.org/2000/svg" xmlns:xlink="http://www.w3.org/1999/xlink" x="0px" y="0px"
	 width="135px" height="40px" viewBox="0 0 135 40" enable-background="new 0 0 135 40" xml:space="preserve">
<path id="logo_1_" fill-rule="evenodd" clip-rule="evenodd" fill="#444444" d="M35.801,23.638c-0.002,0.07-0.005,0.132-0.01,0.182
	c-0.004,0.052-0.008,0.093-0.011,0.123c-0.003,0.029-0.006,0.049-0.007,0.059c-0.011-0.003-0.033-0.01-0.065-0.021
	c-0.032-0.012-0.076-0.025-0.129-0.045c-0.054-0.019-0.117-0.043-0.19-0.071s-0.155-0.062-0.247-0.101s-0.191-0.082-0.299-0.133
	c-0.107-0.049-0.224-0.105-0.347-0.166c-0.123-0.062-0.254-0.13-0.392-0.205c-0.137-0.073-0.281-0.154-0.431-0.242
	c-0.15-0.089-0.306-0.184-0.466-0.287c-0.161-0.104-0.328-0.213-0.499-0.331c-0.171-0.117-0.347-0.243-0.525-0.378
	c-0.18-0.134-0.363-0.277-0.549-0.428c-0.187-0.152-0.376-0.312-0.568-0.48c-0.192-0.169-0.387-0.348-0.583-0.536
	c-0.196-0.188-0.394-0.386-0.593-0.594c-0.199-0.207-0.399-0.425-0.6-0.653c-0.2-0.229-0.382-0.45-0.546-0.666
	s-0.31-0.424-0.438-0.627c-0.129-0.202-0.242-0.399-0.34-0.589c-0.097-0.19-0.18-0.373-0.25-0.55
	c-0.069-0.176-0.125-0.347-0.169-0.51c-0.043-0.164-0.075-0.321-0.096-0.474c-0.021-0.151-0.032-0.295-0.034-0.434
	c0-0.139,0.006-0.271,0.022-0.396c0.015-0.126,0.038-0.245,0.067-0.357s0.064-0.219,0.105-0.318c0.04-0.1,0.084-0.194,0.133-0.281
	c0.048-0.087,0.1-0.167,0.152-0.242c0.054-0.074,0.109-0.143,0.165-0.203c0.056-0.062,0.112-0.117,0.167-0.165
	c0.056-0.049,0.109-0.09,0.161-0.126c0.052-0.035,0.1-0.064,0.146-0.087c0.017-0.009,0.034-0.018,0.051-0.026
	c0.018-0.008,0.036-0.016,0.053-0.024c0.017-0.008,0.035-0.015,0.052-0.022c0.018-0.007,0.034-0.014,0.052-0.02
	c0.017-0.006,0.035-0.012,0.052-0.018c0.018-0.006,0.035-0.012,0.053-0.017c0.017-0.005,0.035-0.01,0.053-0.015
	s0.035-0.01,0.053-0.013c0.017-0.004,0.035-0.008,0.052-0.011c0.018-0.004,0.036-0.008,0.052-0.01
	c0.018-0.003,0.035-0.006,0.053-0.009c0.018-0.002,0.035-0.004,0.053-0.007c0.018-0.002,0.035-0.003,0.053-0.005
	c0.018-0.002,0.036-0.003,0.053-0.004c0.018-0.001,0.035-0.001,0.053-0.002c0.018,0,0.034,0,0.052,0
	c0.125,0,0.248,0.012,0.371,0.033c0.124,0.021,0.245,0.053,0.365,0.093c0.121,0.041,0.24,0.09,0.357,0.146
	c0.117,0.056,0.233,0.119,0.347,0.189c0.114,0.07,0.225,0.145,0.334,0.224c0.108,0.08,0.216,0.164,0.319,0.251
	s0.204,0.177,0.301,0.27s0.191,0.186,0.282,0.28c0.09,0.093,0.177,0.188,0.26,0.281c0.082,0.094,0.16,0.186,0.234,0.275
	c0.074,0.089,0.144,0.177,0.208,0.261c0.065,0.083,0.125,0.162,0.18,0.237c0.055,0.074,0.104,0.143,0.147,0.206
	c0.043,0.062,0.082,0.118,0.112,0.165c0.032,0.047,0.058,0.087,0.078,0.117s0.033,0.05,0.039,0.06
	c0.182,0.301,0.351,0.594,0.507,0.88s0.301,0.564,0.435,0.833c0.133,0.269,0.255,0.531,0.367,0.784
	c0.112,0.254,0.213,0.498,0.306,0.735c0.093,0.236,0.176,0.464,0.25,0.684c0.074,0.221,0.141,0.432,0.199,0.634
	c0.059,0.201,0.109,0.396,0.154,0.58c0.044,0.185,0.082,0.361,0.114,0.526c0.032,0.167,0.058,0.324,0.08,0.472
	c0.021,0.148,0.039,0.287,0.05,0.417c0.013,0.129,0.022,0.249,0.027,0.359c0.006,0.11,0.01,0.21,0.01,0.301
	S35.804,23.566,35.801,23.638z M32.01,12.056c-0.015,0.046-0.033,0.092-0.056,0.137c-0.023,0.045-0.049,0.09-0.08,0.134
	c-0.031,0.044-0.065,0.088-0.104,0.131c-0.039,0.042-0.083,0.084-0.131,0.125c-0.048,0.042-0.101,0.082-0.159,0.121
	c-0.017,0.011-0.033,0.023-0.05,0.033c-0.017,0.011-0.035,0.021-0.052,0.032c-0.017,0.01-0.035,0.02-0.052,0.029
	c-0.019,0.01-0.036,0.019-0.054,0.027s-0.037,0.017-0.055,0.025c-0.019,0.008-0.037,0.016-0.057,0.022
	c-0.019,0.008-0.038,0.015-0.057,0.021c-0.02,0.006-0.039,0.013-0.059,0.019s-0.04,0.012-0.06,0.017
	c-0.021,0.005-0.041,0.01-0.061,0.015c-0.021,0.004-0.041,0.008-0.062,0.012c-0.021,0.004-0.042,0.008-0.063,0.011
	c-0.021,0.003-0.043,0.005-0.064,0.008c-0.021,0.002-0.043,0.004-0.065,0.006c-0.022,0.001-0.044,0.002-0.066,0.003
	c-0.022,0.001-0.045,0.001-0.067,0.001c-0.057,0-0.115-0.003-0.173-0.008c-0.059-0.004-0.119-0.012-0.179-0.021
	c-0.061-0.01-0.123-0.022-0.186-0.037c-0.062-0.015-0.127-0.032-0.192-0.053s-0.131-0.043-0.199-0.068
	c-0.067-0.026-0.136-0.054-0.204-0.085c-0.069-0.031-0.14-0.064-0.211-0.101s-0.144-0.076-0.217-0.118
	c-0.073-0.042-0.147-0.088-0.222-0.136c-0.075-0.048-0.151-0.099-0.228-0.153c-0.078-0.054-0.155-0.11-0.234-0.171
	c-0.079-0.06-0.159-0.123-0.24-0.189c-0.081-0.065-0.162-0.135-0.245-0.208c-0.082-0.073-0.165-0.148-0.249-0.227
	c-0.084-0.079-0.169-0.161-0.255-0.246c-0.085-0.086-0.172-0.175-0.26-0.268c-0.086-0.091-0.167-0.181-0.243-0.27
	c-0.076-0.089-0.147-0.177-0.213-0.263c-0.066-0.087-0.126-0.172-0.183-0.256c-0.056-0.083-0.107-0.165-0.154-0.245
	c-0.047-0.081-0.089-0.16-0.126-0.237c-0.038-0.077-0.071-0.153-0.1-0.227s-0.055-0.146-0.076-0.216
	c-0.021-0.07-0.038-0.138-0.051-0.204c-0.014-0.065-0.023-0.13-0.029-0.192c-0.006-0.062-0.009-0.121-0.008-0.179
	c0.001-0.058,0.005-0.113,0.013-0.165c0.008-0.054,0.019-0.104,0.032-0.151c0.014-0.048,0.03-0.093,0.05-0.136
	c0.02-0.043,0.042-0.083,0.067-0.12c0.024-0.037,0.052-0.071,0.081-0.103s0.062-0.061,0.095-0.086
	c0.013-0.009,0.025-0.019,0.038-0.027c0.013-0.009,0.027-0.017,0.04-0.026c0.013-0.008,0.027-0.016,0.041-0.023
	c0.014-0.008,0.028-0.015,0.042-0.022c0.014-0.007,0.028-0.014,0.043-0.02c0.015-0.006,0.029-0.012,0.044-0.019
	c0.016-0.005,0.03-0.011,0.045-0.016c0.016-0.005,0.031-0.01,0.047-0.015c0.016-0.004,0.031-0.008,0.047-0.012
	c0.016-0.004,0.032-0.007,0.048-0.011c0.017-0.003,0.033-0.006,0.05-0.008c0.017-0.004,0.034-0.006,0.051-0.008
	s0.033-0.004,0.051-0.006c0.018-0.001,0.035-0.003,0.053-0.004c0.017,0,0.035-0.002,0.053-0.002
	c0.018-0.001,0.035-0.001,0.054-0.001c0.087,0,0.177,0.006,0.27,0.019c0.093,0.012,0.188,0.029,0.286,0.052s0.198,0.05,0.3,0.083
	c0.102,0.033,0.205,0.071,0.309,0.113c0.105,0.042,0.21,0.088,0.318,0.139c0.106,0.05,0.214,0.105,0.321,0.163
	s0.215,0.119,0.323,0.183c0.107,0.064,0.214,0.132,0.321,0.201c0.107,0.07,0.213,0.142,0.317,0.217
	c0.104,0.074,0.208,0.151,0.309,0.229c0.102,0.078,0.201,0.158,0.299,0.239s0.192,0.164,0.285,0.247
	c0.092,0.083,0.182,0.167,0.269,0.252c0.086,0.084,0.17,0.169,0.249,0.254c0.08,0.084,0.155,0.169,0.227,0.253
	c0.072,0.084,0.14,0.168,0.202,0.251c0.033,0.042,0.065,0.086,0.095,0.13c0.031,0.044,0.061,0.089,0.089,0.134
	c0.029,0.046,0.056,0.091,0.082,0.137c0.026,0.046,0.051,0.093,0.073,0.14c0.023,0.047,0.043,0.094,0.062,0.142
	c0.019,0.047,0.035,0.094,0.05,0.142c0.014,0.048,0.026,0.096,0.036,0.144c0.01,0.048,0.017,0.095,0.021,0.143
	c0.004,0.048,0.006,0.096,0.004,0.143s-0.007,0.094-0.015,0.141C32.037,11.963,32.024,12.01,32.01,12.056z M25.913,7.938
	c-0.02,0.048-0.043,0.092-0.071,0.133c-0.027,0.042-0.059,0.079-0.093,0.114c-0.021,0.021-0.043,0.041-0.065,0.06
	c-0.022,0.019-0.045,0.038-0.069,0.054c-0.024,0.018-0.049,0.034-0.074,0.05c-0.026,0.016-0.052,0.031-0.079,0.046
	c-0.027,0.015-0.055,0.028-0.083,0.041c-0.029,0.013-0.058,0.025-0.087,0.037c-0.029,0.012-0.06,0.023-0.091,0.033
	c-0.03,0.011-0.062,0.021-0.094,0.029c-0.032,0.01-0.065,0.018-0.098,0.026c-0.033,0.007-0.066,0.014-0.101,0.021
	c-0.034,0.007-0.068,0.013-0.103,0.018c-0.035,0.005-0.07,0.01-0.106,0.015s-0.072,0.008-0.108,0.011
	c-0.036,0.003-0.073,0.006-0.11,0.007c-0.037,0.002-0.074,0.004-0.111,0.005s-0.075,0.002-0.113,0.002
	c-0.058,0-0.116-0.002-0.174-0.004s-0.117-0.005-0.175-0.01c-0.059-0.004-0.117-0.01-0.176-0.017
	c-0.059-0.006-0.118-0.013-0.176-0.021c-0.059-0.008-0.118-0.018-0.175-0.027s-0.116-0.021-0.174-0.032
	c-0.058-0.012-0.114-0.024-0.171-0.037c-0.057-0.013-0.112-0.027-0.168-0.041c-0.055-0.014-0.109-0.029-0.163-0.044
	C22.652,8.39,22.6,8.374,22.548,8.357c-0.052-0.017-0.103-0.034-0.151-0.051c-0.05-0.018-0.098-0.035-0.145-0.054
	c-0.047-0.018-0.092-0.037-0.136-0.056c-0.045-0.019-0.087-0.039-0.128-0.058C21.947,8.119,21.907,8.1,21.87,8.08
	c-0.038-0.02-0.074-0.041-0.107-0.061c-0.192-0.115-0.372-0.232-0.54-0.351c-0.167-0.117-0.323-0.237-0.467-0.357
	c-0.145-0.12-0.278-0.24-0.4-0.361c-0.123-0.121-0.234-0.242-0.336-0.362s-0.194-0.24-0.276-0.359
	c-0.083-0.118-0.156-0.236-0.221-0.352c-0.065-0.116-0.122-0.23-0.17-0.342c-0.048-0.112-0.09-0.222-0.124-0.329
	c-0.034-0.106-0.061-0.211-0.081-0.311c-0.021-0.102-0.034-0.198-0.042-0.292c-0.009-0.093-0.011-0.182-0.008-0.267
	c0.002-0.085,0.01-0.165,0.022-0.24c0.012-0.075,0.028-0.144,0.048-0.208c0.02-0.063,0.043-0.122,0.07-0.174
	c0.027-0.052,0.056-0.099,0.088-0.137c0.031-0.039,0.065-0.071,0.102-0.096c0.007-0.004,0.013-0.009,0.021-0.013
	s0.015-0.008,0.022-0.013c0.008-0.003,0.016-0.008,0.023-0.011c0.008-0.004,0.017-0.007,0.025-0.011
	c0.009-0.003,0.018-0.006,0.026-0.009c0.009-0.003,0.019-0.006,0.028-0.009c0.009-0.002,0.019-0.005,0.029-0.008
	c0.009-0.002,0.019-0.004,0.03-0.006c0.01-0.002,0.02-0.005,0.031-0.007c0.011-0.002,0.021-0.003,0.033-0.005
	c0.011-0.001,0.022-0.003,0.033-0.004c0.012-0.001,0.023-0.003,0.035-0.004c0.011,0,0.023-0.001,0.036-0.002
	c0.012-0.001,0.024-0.002,0.038-0.002c0.012-0.001,0.025-0.001,0.038-0.002c0.013,0,0.026,0,0.039,0
	c0.055,0,0.113,0.003,0.174,0.007c0.06,0.005,0.123,0.012,0.188,0.021s0.133,0.02,0.203,0.033c0.069,0.013,0.142,0.027,0.215,0.045
	c0.073,0.017,0.148,0.035,0.224,0.055c0.076,0.021,0.154,0.043,0.233,0.066c0.078,0.023,0.158,0.049,0.239,0.075
	c0.081,0.027,0.163,0.055,0.245,0.085c0.082,0.029,0.165,0.061,0.247,0.093c0.083,0.032,0.166,0.065,0.248,0.1
	c0.083,0.035,0.166,0.07,0.247,0.107c0.082,0.037,0.163,0.074,0.244,0.112c0.081,0.039,0.161,0.078,0.239,0.119
	c0.079,0.04,0.157,0.082,0.233,0.123c0.075,0.042,0.15,0.084,0.224,0.128c0.072,0.042,0.144,0.086,0.214,0.13
	c0.152,0.097,0.297,0.193,0.434,0.289c0.136,0.095,0.265,0.19,0.386,0.284c0.121,0.093,0.235,0.187,0.34,0.279
	c0.106,0.092,0.205,0.183,0.296,0.272c0.092,0.089,0.177,0.178,0.253,0.265c0.078,0.087,0.149,0.172,0.213,0.256
	c0.064,0.084,0.123,0.166,0.174,0.247c0.052,0.081,0.098,0.159,0.137,0.237c0.04,0.077,0.074,0.152,0.102,0.224
	c0.028,0.073,0.051,0.145,0.069,0.212c0.017,0.069,0.029,0.134,0.036,0.198c0.008,0.063,0.01,0.125,0.008,0.183
	s-0.009,0.114-0.021,0.167C25.947,7.84,25.933,7.891,25.913,7.938z M19.955,6.85c0.139,0.118,0.265,0.241,0.374,0.369
	c0.11,0.128,0.204,0.26,0.279,0.397c0.076,0.136,0.135,0.278,0.175,0.423s0.06,0.295,0.06,0.448c0,0.154-0.021,0.312-0.063,0.473
	c-0.042,0.162-0.107,0.328-0.196,0.496c-0.003,0.005-0.01,0.017-0.021,0.033c-0.011,0.017-0.025,0.039-0.044,0.066
	c-0.019,0.026-0.041,0.058-0.068,0.092c-0.026,0.035-0.057,0.073-0.092,0.114s-0.074,0.086-0.118,0.132s-0.092,0.095-0.145,0.146
	c-0.052,0.05-0.109,0.102-0.171,0.153s-0.128,0.104-0.198,0.157c-0.071,0.052-0.147,0.104-0.228,0.156
	c-0.081,0.051-0.166,0.102-0.256,0.15c-0.091,0.048-0.187,0.095-0.287,0.14c-0.101,0.045-0.206,0.087-0.317,0.125
	c-0.11,0.039-0.227,0.074-0.349,0.105s-0.249,0.059-0.381,0.081c-0.133,0.022-0.271,0.04-0.415,0.052
	c-0.144,0.012-0.293,0.018-0.448,0.018c-0.047,0-0.096,0-0.144-0.002c-0.049-0.002-0.098-0.003-0.148-0.006
	c-0.049-0.003-0.1-0.006-0.15-0.01c-0.052-0.005-0.103-0.01-0.154-0.015c-0.052-0.006-0.104-0.012-0.157-0.02
	c-0.053-0.007-0.106-0.014-0.16-0.023c-0.054-0.008-0.109-0.018-0.164-0.028c-0.055-0.01-0.11-0.021-0.166-0.032
	c-0.057-0.013-0.113-0.024-0.17-0.038c-0.058-0.014-0.116-0.028-0.174-0.043c-0.059-0.015-0.117-0.031-0.176-0.048
	c-0.06-0.017-0.12-0.035-0.18-0.054c-0.06-0.019-0.121-0.038-0.183-0.059c-0.062-0.021-0.124-0.042-0.187-0.065
	c-0.062-0.023-0.126-0.046-0.189-0.071c-0.064-0.024-0.129-0.05-0.193-0.077c-0.131-0.053-0.271-0.111-0.417-0.173
	s-0.301-0.128-0.46-0.198c-0.161-0.071-0.327-0.144-0.498-0.221c-0.171-0.077-0.347-0.157-0.527-0.239
	c-0.18-0.083-0.364-0.169-0.55-0.257C11.71,9.412,11.521,9.322,11.33,9.23c-0.191-0.092-0.383-0.185-0.576-0.28
	c-0.193-0.094-0.385-0.19-0.578-0.287S9.793,8.47,9.604,8.373C9.415,8.275,9.228,8.177,9.043,8.08
	C8.859,7.981,8.678,7.884,8.501,7.788C8.324,7.69,8.151,7.594,7.984,7.499C7.816,7.405,7.655,7.311,7.5,7.218
	C7.345,7.127,7.196,7.036,7.055,6.947C6.915,6.859,6.782,6.773,6.657,6.689C6.533,6.606,6.418,6.525,6.312,6.447
	C6.32,6.442,6.336,6.432,6.361,6.418C6.387,6.403,6.42,6.384,6.462,6.361c0.042-0.023,0.093-0.05,0.152-0.08
	c0.059-0.03,0.126-0.063,0.202-0.099s0.16-0.074,0.252-0.114c0.092-0.041,0.193-0.082,0.303-0.126
	C7.48,5.899,7.598,5.854,7.723,5.81c0.125-0.045,0.26-0.091,0.401-0.136c0.143-0.045,0.292-0.09,0.45-0.134
	c0.158-0.044,0.324-0.087,0.498-0.13c0.174-0.042,0.356-0.082,0.547-0.121c0.189-0.039,0.388-0.074,0.593-0.107
	c0.205-0.034,0.417-0.063,0.638-0.09c0.22-0.027,0.448-0.05,0.685-0.069c0.235-0.019,0.479-0.034,0.73-0.044
	c0.251-0.01,0.51-0.015,0.776-0.015c0.271,0,0.543,0.008,0.814,0.022c0.272,0.014,0.542,0.035,0.811,0.062
	c0.269,0.028,0.534,0.062,0.798,0.102c0.262,0.04,0.521,0.086,0.776,0.139c0.254,0.053,0.503,0.111,0.747,0.176
	s0.48,0.135,0.708,0.211c0.229,0.076,0.449,0.158,0.66,0.245c0.211,0.088,0.413,0.181,0.603,0.279
	c0.19,0.097,0.37,0.201,0.536,0.309C19.661,6.617,19.815,6.731,19.955,6.85z M7.414,16.866c0.326-0.323,0.652-0.627,0.976-0.913
	c0.324-0.286,0.645-0.555,0.96-0.806c0.316-0.251,0.628-0.485,0.932-0.703c0.304-0.218,0.603-0.42,0.891-0.608
	c0.289-0.187,0.568-0.359,0.836-0.517s0.525-0.302,0.768-0.432c0.243-0.131,0.473-0.248,0.687-0.353
	c0.213-0.105,0.412-0.198,0.592-0.279c0.181-0.082,0.343-0.151,0.485-0.211s0.265-0.108,0.365-0.148
	c0.05-0.019,0.099-0.038,0.147-0.057c0.049-0.018,0.098-0.035,0.146-0.052c0.048-0.018,0.096-0.033,0.144-0.048
	c0.048-0.015,0.095-0.03,0.142-0.043s0.094-0.027,0.14-0.04c0.046-0.013,0.092-0.024,0.138-0.036
	c0.045-0.011,0.091-0.022,0.135-0.032c0.045-0.01,0.089-0.02,0.133-0.028c0.044-0.009,0.088-0.017,0.131-0.024
	s0.086-0.015,0.129-0.021c0.042-0.006,0.085-0.012,0.127-0.018c0.042-0.005,0.084-0.01,0.125-0.014
	c0.04-0.004,0.079-0.007,0.118-0.01c0.039-0.002,0.077-0.005,0.115-0.007c0.039-0.002,0.077-0.003,0.114-0.004
	c0.038-0.001,0.075-0.001,0.112-0.001c0.158,0,0.309,0.007,0.454,0.021c0.145,0.013,0.283,0.033,0.416,0.058
	c0.133,0.025,0.26,0.057,0.382,0.092c0.121,0.036,0.237,0.076,0.348,0.12c0.111,0.043,0.217,0.09,0.318,0.14
	c0.102,0.051,0.197,0.104,0.289,0.158c0.091,0.055,0.178,0.111,0.26,0.169c0.081,0.058,0.159,0.117,0.23,0.176
	c0.073,0.059,0.141,0.118,0.204,0.177s0.122,0.116,0.177,0.173c0.054,0.056,0.104,0.11,0.149,0.163
	c0.044,0.052,0.085,0.102,0.122,0.149c0.037,0.046,0.069,0.09,0.097,0.129c0.029,0.039,0.052,0.074,0.072,0.104
	c0.02,0.029,0.035,0.054,0.047,0.072c0.012,0.02,0.019,0.032,0.022,0.038c0.204,0.316,0.364,0.624,0.485,0.924
	c0.122,0.299,0.204,0.59,0.252,0.871c0.049,0.282,0.063,0.555,0.047,0.818c-0.015,0.264-0.061,0.519-0.132,0.764
	c-0.071,0.246-0.167,0.482-0.284,0.71c-0.117,0.227-0.254,0.445-0.408,0.654s-0.324,0.408-0.505,0.598
	c-0.182,0.189-0.376,0.37-0.576,0.541c-0.201,0.171-0.409,0.332-0.62,0.484c-0.21,0.15-0.424,0.293-0.635,0.425
	c-0.211,0.132-0.421,0.253-0.624,0.367c-0.204,0.111-0.4,0.214-0.587,0.306c-0.186,0.093-0.36,0.175-0.52,0.247
	c-0.16,0.07-0.304,0.132-0.428,0.184c-0.124,0.05-0.228,0.093-0.308,0.122c-0.08,0.031-0.135,0.051-0.161,0.061
	c-0.427,0.2-0.848,0.389-1.26,0.565c-0.412,0.178-0.817,0.345-1.214,0.501c-0.396,0.157-0.785,0.304-1.166,0.44
	c-0.38,0.137-0.751,0.264-1.114,0.383c-0.363,0.119-0.716,0.229-1.061,0.329c-0.345,0.102-0.68,0.194-1.005,0.281
	c-0.325,0.085-0.641,0.163-0.945,0.235c-0.306,0.07-0.601,0.136-0.885,0.194c-0.284,0.058-0.558,0.109-0.821,0.155
	c-0.262,0.046-0.514,0.086-0.754,0.121c-0.24,0.036-0.469,0.067-0.686,0.094s-0.422,0.049-0.614,0.067
	c-0.192,0.018-0.373,0.034-0.541,0.046c-0.167,0.011-0.323,0.021-0.464,0.026c-0.142,0.007-0.27,0.013-0.385,0.015
	s-0.217,0.004-0.304,0.004c-0.017,0-0.032,0-0.048,0c-0.015,0-0.03,0-0.044-0.002c-0.015,0-0.028,0-0.041,0
	c-0.014,0-0.026,0-0.039,0c-0.012,0-0.023,0-0.035,0s-0.022,0-0.033,0c-0.01,0-0.02-0.001-0.029-0.002c-0.009,0-0.018,0-0.026,0
	c-0.009-0.001-0.017-0.002-0.024-0.002c-0.007,0-0.014,0-0.021,0c-0.006,0-0.012,0-0.017,0c-0.005,0-0.01-0.002-0.014-0.002
	c0.245-0.583,0.503-1.144,0.775-1.679c0.271-0.536,0.554-1.048,0.847-1.536c0.292-0.49,0.594-0.957,0.903-1.401
	c0.308-0.445,0.624-0.868,0.943-1.271c0.319-0.401,0.642-0.783,0.967-1.144C6.761,17.53,7.088,17.189,7.414,16.866z M20.622,19.954
	c0.044-0.287,0.098-0.551,0.16-0.798c0.062-0.246,0.132-0.473,0.209-0.682c0.077-0.209,0.161-0.4,0.251-0.576
	s0.186-0.333,0.286-0.478c0.101-0.143,0.205-0.272,0.313-0.388s0.22-0.218,0.333-0.308c0.114-0.091,0.229-0.169,0.346-0.236
	c0.117-0.068,0.235-0.126,0.354-0.175c0.117-0.049,0.234-0.088,0.352-0.12c0.116-0.032,0.231-0.056,0.344-0.075
	c0.112-0.018,0.222-0.03,0.328-0.039c0.106-0.007,0.209-0.011,0.306-0.01c0.017,0,0.034,0,0.05,0c0.017,0,0.033,0.001,0.049,0.001
	s0.033,0,0.048,0.001c0.017,0,0.032,0.001,0.048,0.002c0.016,0,0.031,0.001,0.046,0.002c0.015,0,0.03,0.001,0.045,0.003
	c0.015,0,0.029,0.001,0.044,0.002s0.029,0.002,0.043,0.003c0.015,0.001,0.028,0.002,0.042,0.003s0.027,0.002,0.041,0.003
	c0.013,0.001,0.026,0.002,0.039,0.003c0.013,0.001,0.026,0.002,0.039,0.004c0.012,0.001,0.024,0.002,0.036,0.003
	c0.012,0.002,0.024,0.003,0.035,0.004c0.012,0,0.023,0.002,0.035,0.003c0.011,0.001,0.022,0.002,0.033,0.003
	c0.286,0.029,0.552,0.079,0.799,0.146s0.476,0.151,0.688,0.25c0.212,0.099,0.406,0.213,0.584,0.339
	c0.179,0.127,0.341,0.266,0.489,0.415s0.282,0.307,0.402,0.473c0.121,0.166,0.228,0.339,0.323,0.517
	c0.096,0.179,0.179,0.361,0.252,0.546c0.074,0.186,0.137,0.373,0.191,0.56c0.054,0.187,0.098,0.373,0.136,0.557
	c0.037,0.184,0.067,0.364,0.09,0.54c0.024,0.175,0.041,0.345,0.054,0.507c0.013,0.163,0.02,0.316,0.024,0.46
	c0.004,0.145,0.005,0.276,0.003,0.396c-0.002,0.121-0.006,0.227-0.01,0.317c-0.005,0.092-0.01,0.167-0.015,0.225
	s-0.008,0.097-0.01,0.115c-0.024,0.56-0.065,1.103-0.12,1.631c-0.055,0.526-0.123,1.039-0.205,1.536
	c-0.081,0.496-0.174,0.977-0.278,1.439s-0.217,0.911-0.338,1.343c-0.122,0.432-0.251,0.847-0.387,1.246
	c-0.136,0.397-0.277,0.78-0.423,1.146c-0.146,0.365-0.295,0.715-0.447,1.047c-0.15,0.333-0.304,0.647-0.456,0.945
	c-0.153,0.299-0.307,0.581-0.456,0.844c-0.15,0.266-0.298,0.513-0.441,0.742c-0.144,0.23-0.283,0.442-0.416,0.638
	c-0.132,0.194-0.258,0.372-0.375,0.532c-0.118,0.159-0.226,0.302-0.324,0.426c-0.098,0.125-0.185,0.232-0.26,0.32
	c-0.074,0.089-0.136,0.159-0.184,0.212c-0.047,0.053-0.078,0.088-0.094,0.104c-0.007-0.009-0.02-0.026-0.041-0.056
	c-0.02-0.028-0.047-0.068-0.08-0.118c-0.033-0.053-0.072-0.115-0.116-0.19c-0.044-0.076-0.093-0.165-0.147-0.267
	c-0.054-0.103-0.112-0.219-0.174-0.35c-0.062-0.133-0.128-0.278-0.197-0.44c-0.069-0.163-0.142-0.34-0.217-0.536
	c-0.075-0.195-0.151-0.407-0.23-0.638c-0.078-0.23-0.159-0.479-0.24-0.747s-0.163-0.555-0.247-0.862
	c-0.082-0.307-0.166-0.635-0.248-0.983c-0.083-0.35-0.165-0.719-0.246-1.111s-0.161-0.807-0.239-1.244
	c-0.078-0.438-0.155-0.9-0.229-1.386c-0.074-0.485-0.146-0.995-0.214-1.532c-0.068-0.534-0.133-1.096-0.194-1.684
	c-0.049-0.477-0.085-0.926-0.107-1.35s-0.032-0.822-0.029-1.198c0.001-0.375,0.016-0.728,0.04-1.056
	C20.542,20.547,20.578,20.24,20.622,19.954z"/>
<g>
	<path fill="#444444" d="M64.006,27.5h-2.563V17.131c0-0.342-0.029-0.627-0.087-0.855c-0.057-0.229-0.175-0.461-0.356-0.698
		c-0.18-0.237-0.484-0.418-0.912-0.542c-0.427-0.123-0.964-0.185-1.61-0.185c-1.501,0-2.466,0.162-2.893,0.485
		c-0.428,0.323-0.642,0.922-0.642,1.795V27.5h-2.564V17.131c0-0.342-0.029-0.627-0.086-0.855c-0.057-0.229-0.175-0.461-0.356-0.698
		c-0.18-0.237-0.48-0.418-0.897-0.542c-0.418-0.123-0.951-0.185-1.597-0.185c-1.52,0-2.531,0.157-3.035,0.47
		s-0.755,0.917-0.755,1.81V27.5h-2.565V13h2.565v1.965C45.918,13.654,47.467,13,50.298,13c2.299,0,3.733,0.626,4.304,1.88
		c0.189-0.646,0.727-1.12,1.609-1.424C57.096,13.152,58.135,13,59.332,13c1.768,0,2.988,0.326,3.663,0.982
		c0.674,0.655,1.011,1.648,1.011,2.978V27.5z"/>
	<path fill="#444444" d="M79.339,27H76.86v-1.233c-0.21,1.064-1.597,1.733-4.161,1.733c-1.9,0-3.216-0.427-3.947-1.007
		c-0.732-0.579-1.098-1.753-1.098-3.52c0-1.539,0.342-2.598,1.026-3.178c0.684-0.579,2.004-0.869,3.961-0.869h4.133v-2.194
		c0-0.76-0.232-1.273-0.698-1.539c-0.466-0.266-1.345-0.399-2.637-0.399c-1.405,0-2.982,0.114-4.73,0.342v-1.881
		c1.881-0.171,3.581-0.256,5.102-0.256c2.317,0,3.819,0.28,4.503,0.841s1.025,1.724,1.025,3.491V27z M76.774,24.285v-3.762h-3.961
		c-1.179,0-1.915,0.152-2.209,0.456c-0.295,0.305-0.441,0.998-0.441,2.081c0,0.969,0.156,1.648,0.47,2.038
		c0.313,0.389,0.974,0.584,1.98,0.584h0.513c0.494,0,0.907-0.01,1.24-0.029c0.332-0.018,0.708-0.071,1.126-0.156
		c0.417-0.086,0.736-0.228,0.954-0.428C76.665,24.869,76.774,24.608,76.774,24.285z"/>
	<path fill="#444444" d="M94.017,22.232v1.197c0,1.482-0.518,2.508-1.553,3.078c-1.036,0.57-2.522,0.992-4.461,0.992
		c-1.481,0-3.06-0.251-4.731-0.479v-1.966c2.281,0.36,3.877,0.541,4.788,0.541c1.141,0,1.995-0.109,2.565-0.327
		c0.57-0.219,0.855-0.67,0.855-1.354v-1.396c0-0.589-0.2-1.007-0.599-1.254c-0.399-0.247-1.045-0.37-1.938-0.37h-1.567
		c-1.444,0-2.536-0.3-3.277-0.898c-0.741-0.598-1.111-1.42-1.111-2.465v-1.282c0-2.166,2.052-3.249,6.156-3.249
		c0.455,0,1.853,0.076,4.189,0.228v1.853c-1.635-0.266-3.069-0.399-4.304-0.399c-1.368,0-2.295,0.133-2.779,0.399
		c-0.484,0.267-0.727,0.713-0.727,1.34v1.168c0,0.931,0.846,1.396,2.536,1.396h1.597C92.563,18.984,94.017,20.067,94.017,22.232z"/>
	<path fill="#444444" d="M106.215,27.135c-0.912,0.152-1.872,0.365-2.879,0.365c-1.729,0-2.936-0.437-3.619-1.035
		c-0.685-0.598-1.026-1.733-1.026-3.405v-8.094h-3.353v-1.853h3.353V9.009h2.348v4.104h5.177v1.853h-5.177v8.236
		c0,0.988,0.436,1.649,0.816,1.981c0.38,0.332,1.149,0.499,2.308,0.499c0.304,0,0.988-0.076,2.053-0.229V27.135z"/>
	<path fill="#444444" d="M120.351,21.188h-9.263v1.644c0,0.969,0.342,1.658,1.026,2.066c0.684,0.409,1.7,0.612,3.049,0.612
		c1.312,0,2.86-0.228,4.646-0.684v1.967c-1.71,0.379-3.372,0.707-4.987,0.707c-4.218,0-6.327-1.543-6.327-4.355v-5.443
		c0-1.69,0.485-2.897,1.454-3.619s2.518-1.083,4.646-1.083c1.994,0,3.452,0.347,4.375,1.04c0.921,0.694,1.382,1.914,1.382,3.662
		V21.188z M117.785,19.288v-2.384c0-0.836-0.256-1.411-0.77-1.724c-0.513-0.314-1.367-0.47-2.564-0.47
		c-1.14,0-1.985,0.152-2.537,0.456c-0.551,0.304-0.826,0.883-0.826,1.738v2.384H117.785z"/>
	<path fill="#444444" d="M130.963,15.193h-1.425c-1.179,0-2.048,0.152-2.608,0.456s-0.841,0.874-0.841,1.71V27.5h-2.564V13.284
		h2.423v2.251c0-0.665,0.413-1.254,1.239-1.767c0.826-0.514,1.667-0.77,2.522-0.77h1.254V15.193z"/>
</g>
</svg>
