<?xml version="1.0" encoding="utf-8"?>
<!DOCTYPE svg PUBLIC "-//W3C//DTD SVG 1.1//EN" "http://www.w3.org/Graphics/SVG/1.1/DTD/svg11.dtd">
<svg version="1.1" id="logo" xmlns="http://www.w3.org/2000/svg" xmlns:xlink="http://www.w3.org/1999/xlink" x="0px" y="0px"
	 width="270px" height="70px" viewBox="0 0 270 70" enable-background="new 0 0 270 70" xml:space="preserve">
<path id="logo_1_" fill-rule="evenodd" clip-rule="evenodd" fill="#444444" d="M68.601,42.275c-0.003,0.141-0.01,0.264-0.02,0.363
	c-0.007,0.103-0.016,0.186-0.022,0.246c-0.007,0.059-0.013,0.098-0.015,0.117c-0.021-0.006-0.065-0.02-0.13-0.04
	c-0.065-0.024-0.152-0.052-0.259-0.091c-0.106-0.037-0.234-0.086-0.38-0.143c-0.146-0.057-0.311-0.123-0.493-0.201
	c-0.182-0.078-0.382-0.164-0.598-0.265c-0.216-0.1-0.448-0.211-0.694-0.334c-0.246-0.124-0.508-0.259-0.782-0.408
	c-0.273-0.147-0.562-0.31-0.863-0.486c-0.3-0.177-0.611-0.366-0.933-0.573c-0.322-0.206-0.655-0.426-0.998-0.662
	c-0.342-0.234-0.693-0.487-1.051-0.755c-0.36-0.269-0.726-0.555-1.098-0.856c-0.373-0.305-0.753-0.623-1.137-0.961
	c-0.385-0.338-0.774-0.695-1.167-1.072c-0.392-0.375-0.788-0.772-1.187-1.188c-0.398-0.415-0.799-0.851-1.2-1.306
	c-0.401-0.458-0.764-0.901-1.092-1.332c-0.328-0.431-0.619-0.849-0.877-1.255c-0.258-0.405-0.483-0.798-0.681-1.177
	c-0.195-0.38-0.361-0.746-0.5-1.101c-0.138-0.352-0.25-0.693-0.338-1.021c-0.086-0.328-0.15-0.643-0.192-0.947
	c-0.042-0.302-0.064-0.591-0.067-0.868c-0.001-0.278,0.013-0.542,0.044-0.792c0.03-0.252,0.076-0.489,0.134-0.714
	c0.059-0.226,0.129-0.438,0.21-0.637c0.079-0.2,0.169-0.388,0.266-0.562s0.199-0.334,0.306-0.484
	c0.107-0.148,0.218-0.284,0.329-0.406c0.112-0.123,0.224-0.233,0.333-0.33c0.111-0.097,0.218-0.18,0.322-0.251
	c0.103-0.071,0.2-0.13,0.291-0.175c0.034-0.019,0.068-0.036,0.102-0.052c0.036-0.017,0.071-0.032,0.106-0.048
	c0.034-0.016,0.069-0.029,0.104-0.043c0.035-0.015,0.069-0.028,0.104-0.041c0.035-0.013,0.07-0.024,0.104-0.036
	c0.035-0.012,0.07-0.023,0.106-0.033c0.034-0.01,0.07-0.02,0.105-0.03c0.035-0.009,0.07-0.019,0.106-0.026
	c0.034-0.008,0.069-0.016,0.104-0.022c0.035-0.008,0.071-0.015,0.105-0.02c0.035-0.007,0.07-0.012,0.105-0.018
	c0.036-0.005,0.07-0.008,0.106-0.014c0.035-0.004,0.07-0.007,0.105-0.01c0.036-0.003,0.071-0.006,0.105-0.007
	c0.036-0.002,0.07-0.003,0.106-0.005c0.035,0,0.069-0.001,0.104-0.001c0.25,0,0.497,0.023,0.741,0.066
	c0.247,0.044,0.49,0.107,0.73,0.187c0.241,0.082,0.479,0.18,0.714,0.292c0.235,0.112,0.467,0.239,0.694,0.378
	c0.228,0.139,0.45,0.289,0.667,0.449c0.217,0.159,0.431,0.327,0.638,0.502c0.207,0.175,0.408,0.354,0.603,0.539
	s0.383,0.372,0.564,0.561c0.181,0.187,0.353,0.375,0.519,0.562c0.164,0.187,0.321,0.371,0.469,0.55
	c0.149,0.179,0.287,0.354,0.417,0.521c0.13,0.167,0.249,0.325,0.358,0.474c0.109,0.148,0.208,0.286,0.295,0.411
	c0.087,0.125,0.164,0.236,0.225,0.331c0.064,0.095,0.116,0.174,0.155,0.234c0.039,0.061,0.065,0.101,0.077,0.121
	c0.364,0.603,0.702,1.189,1.014,1.76c0.312,0.572,0.601,1.127,0.869,1.667c0.267,0.539,0.51,1.062,0.734,1.569
	c0.225,0.507,0.427,0.996,0.612,1.47c0.185,0.473,0.351,0.929,0.5,1.368c0.149,0.441,0.282,0.863,0.399,1.267
	c0.116,0.402,0.219,0.791,0.308,1.16c0.088,0.369,0.165,0.722,0.229,1.053c0.064,0.333,0.117,0.648,0.16,0.943
	c0.042,0.297,0.077,0.574,0.101,0.834c0.026,0.258,0.044,0.498,0.055,0.719c0.011,0.22,0.019,0.421,0.02,0.602
	C68.609,41.973,68.607,42.133,68.601,42.275z M61.019,19.111c-0.029,0.092-0.066,0.183-0.111,0.274
	c-0.046,0.09-0.098,0.179-0.159,0.267c-0.062,0.089-0.13,0.175-0.208,0.261c-0.078,0.085-0.166,0.169-0.262,0.251
	c-0.096,0.083-0.202,0.163-0.318,0.242c-0.033,0.023-0.066,0.045-0.1,0.066c-0.034,0.022-0.069,0.042-0.104,0.063
	c-0.034,0.02-0.07,0.04-0.105,0.058c-0.036,0.02-0.071,0.037-0.108,0.055c-0.036,0.017-0.073,0.034-0.11,0.051
	c-0.038,0.015-0.074,0.031-0.113,0.045c-0.038,0.015-0.076,0.029-0.114,0.042c-0.04,0.013-0.078,0.026-0.117,0.038
	c-0.04,0.011-0.08,0.023-0.12,0.033c-0.041,0.01-0.081,0.02-0.122,0.029c-0.041,0.009-0.082,0.017-0.124,0.023
	c-0.042,0.009-0.083,0.015-0.126,0.022c-0.042,0.006-0.085,0.01-0.129,0.016c-0.043,0.004-0.087,0.007-0.131,0.011
	c-0.043,0.002-0.087,0.005-0.133,0.006c-0.044,0.002-0.089,0.002-0.135,0.002c-0.113,0-0.229-0.005-0.346-0.015
	c-0.117-0.009-0.237-0.023-0.358-0.043c-0.122-0.02-0.246-0.044-0.372-0.074c-0.126-0.03-0.254-0.065-0.384-0.106
	c-0.13-0.04-0.263-0.085-0.397-0.137c-0.136-0.051-0.272-0.107-0.409-0.169c-0.139-0.062-0.279-0.129-0.422-0.203
	c-0.142-0.073-0.286-0.151-0.433-0.236c-0.146-0.084-0.294-0.175-0.445-0.272c-0.149-0.096-0.302-0.198-0.455-0.306
	c-0.155-0.107-0.311-0.221-0.468-0.341c-0.159-0.12-0.318-0.247-0.479-0.379c-0.162-0.132-0.324-0.271-0.489-0.416
	c-0.164-0.145-0.33-0.297-0.498-0.455c-0.168-0.158-0.337-0.322-0.509-0.492c-0.171-0.172-0.345-0.35-0.52-0.534
	c-0.173-0.183-0.335-0.362-0.487-0.541c-0.152-0.178-0.294-0.354-0.426-0.526c-0.132-0.173-0.253-0.343-0.366-0.511
	c-0.111-0.166-0.214-0.331-0.309-0.491c-0.093-0.162-0.177-0.32-0.252-0.474c-0.076-0.155-0.142-0.306-0.2-0.454
	c-0.059-0.147-0.109-0.292-0.151-0.432c-0.042-0.14-0.075-0.276-0.102-0.409c-0.028-0.131-0.047-0.26-0.058-0.384
	c-0.013-0.124-0.018-0.243-0.016-0.357c0.003-0.115,0.011-0.226,0.025-0.331c0.016-0.106,0.037-0.206,0.063-0.302
	c0.028-0.097,0.061-0.187,0.1-0.272c0.039-0.085,0.083-0.165,0.133-0.24c0.049-0.074,0.104-0.143,0.162-0.206
	c0.059-0.064,0.124-0.121,0.191-0.173c0.026-0.018,0.05-0.037,0.076-0.053c0.026-0.018,0.054-0.035,0.08-0.051
	c0.026-0.016,0.055-0.032,0.082-0.046c0.027-0.016,0.055-0.029,0.084-0.044c0.027-0.013,0.057-0.027,0.085-0.04
	c0.029-0.012,0.059-0.024,0.088-0.036c0.031-0.011,0.061-0.022,0.09-0.032c0.031-0.01,0.062-0.02,0.094-0.028
	c0.03-0.008,0.062-0.017,0.093-0.025c0.031-0.008,0.064-0.015,0.096-0.021c0.033-0.006,0.066-0.013,0.099-0.017
	c0.034-0.007,0.068-0.012,0.101-0.016c0.034-0.004,0.067-0.007,0.102-0.011c0.035-0.003,0.069-0.006,0.105-0.008
	c0.034-0.001,0.07-0.003,0.105-0.004c0.036-0.001,0.071-0.002,0.107-0.002c0.174,0,0.354,0.013,0.541,0.038
	c0.186,0.023,0.377,0.059,0.572,0.104c0.195,0.045,0.396,0.101,0.6,0.167c0.203,0.067,0.411,0.142,0.619,0.226
	c0.209,0.084,0.421,0.176,0.635,0.277c0.213,0.101,0.428,0.209,0.643,0.325c0.215,0.115,0.43,0.239,0.646,0.366
	c0.214,0.128,0.429,0.263,0.641,0.402c0.214,0.14,0.426,0.284,0.635,0.433c0.208,0.149,0.415,0.302,0.617,0.46
	c0.203,0.156,0.402,0.315,0.597,0.479c0.195,0.162,0.385,0.327,0.571,0.494c0.184,0.166,0.363,0.334,0.537,0.503
	c0.172,0.169,0.34,0.339,0.498,0.509c0.161,0.169,0.311,0.338,0.454,0.507s0.278,0.336,0.403,0.502
	c0.066,0.085,0.129,0.172,0.191,0.261c0.062,0.088,0.121,0.178,0.178,0.269c0.058,0.091,0.112,0.182,0.164,0.274
	c0.052,0.093,0.101,0.187,0.146,0.279c0.046,0.094,0.087,0.188,0.125,0.284c0.037,0.094,0.07,0.189,0.101,0.284
	c0.028,0.095,0.053,0.191,0.071,0.287c0.02,0.096,0.034,0.19,0.043,0.286c0.008,0.096,0.011,0.191,0.008,0.285
	c-0.004,0.094-0.013,0.188-0.029,0.282C61.073,18.926,61.049,19.019,61.019,19.111z M48.825,10.875
	c-0.039,0.096-0.087,0.184-0.142,0.266c-0.055,0.083-0.117,0.158-0.186,0.227c-0.042,0.041-0.085,0.081-0.13,0.119
	c-0.045,0.037-0.091,0.075-0.139,0.108c-0.048,0.035-0.097,0.068-0.149,0.1c-0.051,0.032-0.104,0.062-0.157,0.091
	c-0.055,0.029-0.109,0.057-0.166,0.083c-0.058,0.026-0.115,0.051-0.174,0.075c-0.059,0.024-0.12,0.045-0.182,0.066
	c-0.061,0.021-0.124,0.04-0.188,0.059c-0.064,0.019-0.129,0.035-0.195,0.052c-0.066,0.014-0.132,0.029-0.201,0.042
	c-0.068,0.013-0.137,0.024-0.206,0.036c-0.07,0.011-0.14,0.021-0.211,0.029c-0.071,0.008-0.144,0.016-0.216,0.021
	c-0.072,0.006-0.146,0.012-0.22,0.015c-0.073,0.004-0.148,0.007-0.223,0.009c-0.074,0.001-0.15,0.003-0.226,0.003
	c-0.115,0-0.231-0.003-0.348-0.008c-0.116-0.004-0.233-0.011-0.35-0.021c-0.117-0.009-0.235-0.02-0.352-0.033
	c-0.117-0.012-0.236-0.026-0.353-0.042c-0.118-0.016-0.235-0.035-0.351-0.055s-0.232-0.042-0.348-0.064
	c-0.115-0.023-0.229-0.047-0.342-0.073c-0.113-0.026-0.225-0.054-0.335-0.082c-0.11-0.028-0.219-0.058-0.327-0.089
	c-0.106-0.031-0.211-0.063-0.314-0.096c-0.104-0.032-0.205-0.067-0.303-0.102c-0.099-0.036-0.195-0.07-0.29-0.107
	c-0.094-0.037-0.185-0.073-0.272-0.111c-0.089-0.038-0.174-0.077-0.256-0.116c-0.081-0.039-0.161-0.078-0.235-0.118
	c-0.076-0.041-0.147-0.081-0.214-0.122c-0.385-0.231-0.745-0.465-1.08-0.701c-0.335-0.235-0.646-0.475-0.934-0.715
	c-0.289-0.24-0.556-0.481-0.8-0.722c-0.245-0.242-0.469-0.483-0.672-0.724c-0.205-0.24-0.387-0.48-0.553-0.718
	c-0.166-0.237-0.312-0.473-0.442-0.704c-0.132-0.232-0.244-0.46-0.341-0.684c-0.097-0.224-0.18-0.443-0.247-0.657
	c-0.068-0.214-0.122-0.422-0.162-0.622c-0.041-0.202-0.068-0.396-0.084-0.583c-0.017-0.186-0.021-0.364-0.016-0.535
	c0.004-0.169,0.02-0.329,0.044-0.479c0.023-0.149,0.056-0.289,0.096-0.417c0.04-0.127,0.087-0.244,0.14-0.348
	c0.054-0.104,0.112-0.196,0.176-0.272c0.063-0.078,0.131-0.143,0.203-0.191c0.014-0.008,0.027-0.018,0.041-0.027
	c0.015-0.009,0.031-0.017,0.045-0.025c0.016-0.007,0.032-0.016,0.048-0.023s0.033-0.014,0.049-0.022
	c0.019-0.007,0.036-0.013,0.053-0.018c0.019-0.007,0.037-0.013,0.057-0.018c0.018-0.005,0.037-0.011,0.057-0.017
	c0.019-0.004,0.039-0.009,0.06-0.013c0.02-0.004,0.041-0.009,0.062-0.013c0.022-0.004,0.043-0.007,0.065-0.011
	c0.022-0.002,0.045-0.006,0.067-0.009c0.023-0.002,0.046-0.005,0.07-0.007c0.022-0.001,0.047-0.003,0.071-0.005
	c0.025-0.001,0.049-0.003,0.075-0.003c0.025-0.002,0.05-0.003,0.077-0.004c0.025,0,0.052,0,0.077,0c0.111,0,0.226,0.006,0.348,0.014
	c0.12,0.01,0.247,0.023,0.377,0.042c0.13,0.017,0.266,0.04,0.406,0.065c0.14,0.026,0.283,0.056,0.431,0.09
	c0.146,0.034,0.296,0.07,0.448,0.11c0.153,0.041,0.308,0.085,0.467,0.132c0.157,0.048,0.317,0.099,0.478,0.151
	c0.162,0.053,0.325,0.11,0.489,0.169c0.164,0.06,0.33,0.121,0.494,0.186c0.165,0.064,0.331,0.132,0.496,0.201
	s0.331,0.14,0.493,0.213c0.164,0.074,0.326,0.148,0.488,0.226c0.162,0.078,0.321,0.156,0.478,0.238
	c0.158,0.081,0.313,0.164,0.466,0.247c0.151,0.083,0.301,0.168,0.448,0.255c0.145,0.085,0.288,0.172,0.427,0.26
	c0.305,0.193,0.594,0.386,0.868,0.578c0.273,0.19,0.53,0.38,0.771,0.568c0.242,0.187,0.47,0.374,0.681,0.557
	c0.212,0.184,0.409,0.366,0.592,0.544c0.184,0.179,0.353,0.356,0.507,0.53c0.156,0.174,0.298,0.345,0.427,0.513
	c0.128,0.168,0.246,0.332,0.348,0.494c0.104,0.161,0.195,0.318,0.274,0.473c0.08,0.153,0.148,0.303,0.204,0.449
	c0.057,0.146,0.103,0.288,0.138,0.424c0.034,0.137,0.059,0.269,0.073,0.396c0.015,0.126,0.02,0.25,0.016,0.366
	c-0.004,0.117-0.019,0.229-0.042,0.335C48.895,10.681,48.865,10.781,48.825,10.875z M36.909,8.699
	c0.279,0.236,0.529,0.483,0.748,0.738c0.22,0.256,0.407,0.52,0.559,0.795c0.152,0.273,0.271,0.555,0.35,0.847
	c0.079,0.291,0.12,0.589,0.12,0.897c0,0.309-0.042,0.625-0.126,0.946c-0.085,0.324-0.215,0.655-0.393,0.992
	c-0.006,0.011-0.021,0.034-0.042,0.066c-0.021,0.035-0.051,0.078-0.088,0.131c-0.038,0.053-0.082,0.115-0.137,0.185
	c-0.054,0.069-0.114,0.146-0.184,0.229c-0.071,0.083-0.148,0.172-0.237,0.265c-0.087,0.092-0.183,0.189-0.289,0.29
	c-0.104,0.1-0.218,0.204-0.342,0.308c-0.123,0.104-0.255,0.208-0.396,0.313c-0.143,0.105-0.294,0.209-0.455,0.313
	c-0.162,0.102-0.332,0.203-0.513,0.3c-0.181,0.097-0.373,0.191-0.574,0.279c-0.201,0.09-0.413,0.174-0.635,0.251
	c-0.221,0.077-0.454,0.147-0.698,0.21c-0.243,0.063-0.497,0.117-0.762,0.162c-0.265,0.045-0.541,0.08-0.829,0.104
	c-0.287,0.024-0.586,0.037-0.896,0.036c-0.095,0-0.191-0.001-0.289-0.003c-0.098-0.004-0.195-0.007-0.295-0.013
	c-0.099-0.005-0.2-0.012-0.3-0.02c-0.103-0.009-0.205-0.019-0.309-0.029c-0.103-0.011-0.208-0.023-0.314-0.038
	c-0.105-0.014-0.212-0.029-0.32-0.046c-0.108-0.017-0.218-0.035-0.328-0.055c-0.109-0.02-0.221-0.042-0.333-0.065
	c-0.112-0.024-0.226-0.049-0.34-0.076c-0.115-0.027-0.231-0.055-0.348-0.085s-0.234-0.062-0.352-0.097
	c-0.12-0.033-0.239-0.069-0.36-0.107c-0.12-0.037-0.243-0.076-0.366-0.118c-0.124-0.041-0.247-0.084-0.374-0.13
	c-0.125-0.045-0.252-0.092-0.38-0.142c-0.127-0.049-0.257-0.1-0.387-0.153c-0.262-0.107-0.541-0.223-0.833-0.347
	c-0.293-0.124-0.601-0.256-0.92-0.396c-0.321-0.141-0.653-0.288-0.996-0.442c-0.342-0.154-0.694-0.314-1.055-0.479
	c-0.359-0.166-0.728-0.337-1.099-0.513c-0.374-0.175-0.752-0.354-1.133-0.537c-0.382-0.184-0.766-0.37-1.151-0.56
	c-0.386-0.188-0.771-0.38-1.156-0.573c-0.384-0.193-0.766-0.388-1.145-0.583c-0.378-0.195-0.753-0.391-1.122-0.586
	c-0.368-0.197-0.731-0.392-1.085-0.584c-0.354-0.194-0.699-0.387-1.034-0.577C12.633,9.81,12.31,9.622,12,9.437
	c-0.311-0.183-0.608-0.365-0.89-0.542c-0.281-0.176-0.547-0.349-0.795-0.516c-0.249-0.167-0.479-0.329-0.69-0.484
	c0.016-0.01,0.048-0.03,0.098-0.059c0.05-0.029,0.117-0.067,0.201-0.113c0.084-0.045,0.187-0.099,0.304-0.159
	c0.118-0.06,0.253-0.127,0.404-0.199c0.151-0.071,0.32-0.148,0.505-0.228c0.185-0.081,0.387-0.164,0.605-0.251
	c0.218-0.086,0.453-0.175,0.704-0.265c0.251-0.091,0.519-0.182,0.803-0.272c0.285-0.09,0.584-0.181,0.9-0.269
	c0.317-0.089,0.648-0.175,0.997-0.26c0.348-0.084,0.713-0.164,1.093-0.242c0.38-0.077,0.776-0.148,1.187-0.214
	c0.41-0.067,0.834-0.126,1.276-0.181c0.441-0.053,0.896-0.1,1.369-0.138c0.472-0.038,0.958-0.068,1.46-0.089
	c0.502-0.02,1.02-0.031,1.552-0.03c0.542,0,1.086,0.016,1.628,0.044c0.544,0.027,1.083,0.07,1.621,0.125
	c0.538,0.055,1.069,0.123,1.596,0.204c0.524,0.08,1.042,0.172,1.552,0.277c0.508,0.106,1.007,0.224,1.494,0.353
	c0.485,0.129,0.959,0.27,1.417,0.422c0.457,0.152,0.898,0.316,1.32,0.491c0.422,0.175,0.825,0.36,1.206,0.557
	c0.38,0.195,0.74,0.402,1.072,0.619C36.322,8.234,36.63,8.462,36.909,8.699z M11.828,28.732c0.653-0.646,1.304-1.255,1.952-1.827
	c0.647-0.572,1.289-1.109,1.921-1.612c0.632-0.502,1.255-0.971,1.864-1.406c0.609-0.437,1.205-0.841,1.781-1.216
	c0.577-0.374,1.136-0.718,1.672-1.033s1.049-0.604,1.536-0.864c0.486-0.261,0.945-0.496,1.375-0.705
	c0.427-0.211,0.824-0.396,1.184-0.558c0.361-0.163,0.686-0.303,0.971-0.422c0.285-0.12,0.529-0.217,0.73-0.297
	c0.1-0.038,0.197-0.076,0.295-0.113c0.098-0.036,0.195-0.07,0.292-0.104c0.095-0.034,0.192-0.065,0.287-0.096
	c0.095-0.03,0.189-0.06,0.283-0.087c0.094-0.027,0.188-0.054,0.28-0.079c0.093-0.025,0.184-0.049,0.275-0.072
	c0.091-0.023,0.182-0.044,0.271-0.064c0.089-0.02,0.178-0.039,0.266-0.056c0.088-0.018,0.176-0.034,0.263-0.048
	c0.087-0.015,0.173-0.03,0.259-0.042c0.085-0.013,0.17-0.024,0.254-0.035c0.084-0.01,0.168-0.02,0.25-0.028
	c0.08-0.008,0.158-0.014,0.236-0.021c0.078-0.005,0.155-0.01,0.231-0.015c0.078-0.003,0.153-0.006,0.228-0.008
	c0.076-0.002,0.15-0.003,0.224-0.003c0.316,0,0.619,0.015,0.908,0.042c0.29,0.027,0.566,0.066,0.832,0.117
	c0.265,0.051,0.519,0.112,0.763,0.184c0.242,0.071,0.475,0.151,0.696,0.239c0.223,0.086,0.434,0.18,0.636,0.281
	c0.203,0.101,0.395,0.206,0.578,0.315c0.182,0.11,0.356,0.223,0.52,0.339c0.163,0.116,0.318,0.234,0.461,0.351
	c0.146,0.118,0.282,0.237,0.408,0.354c0.127,0.117,0.244,0.232,0.353,0.345c0.108,0.113,0.208,0.222,0.299,0.327
	c0.089,0.104,0.171,0.203,0.245,0.297c0.074,0.093,0.139,0.18,0.194,0.258c0.057,0.078,0.104,0.147,0.144,0.208
	c0.04,0.059,0.071,0.108,0.094,0.145c0.023,0.039,0.038,0.064,0.045,0.076c0.407,0.633,0.728,1.249,0.971,1.847
	c0.243,0.598,0.407,1.18,0.504,1.743c0.097,0.563,0.125,1.109,0.094,1.636c-0.031,0.528-0.122,1.038-0.264,1.528
	c-0.142,0.491-0.333,0.965-0.567,1.419c-0.234,0.455-0.509,0.891-0.816,1.308c-0.308,0.417-0.647,0.816-1.011,1.196
	c-0.364,0.378-0.751,0.74-1.152,1.083c-0.402,0.341-0.818,0.664-1.239,0.969c-0.42,0.301-0.848,0.586-1.271,0.851
	c-0.422,0.264-0.842,0.507-1.248,0.733c-0.408,0.223-0.801,0.428-1.174,0.611c-0.371,0.186-0.721,0.35-1.04,0.493
	c-0.319,0.143-0.607,0.265-0.855,0.369c-0.249,0.099-0.456,0.185-0.616,0.243c-0.159,0.062-0.269,0.102-0.321,0.121
	c-0.854,0.399-1.695,0.777-2.52,1.131c-0.825,0.356-1.635,0.689-2.428,1.002c-0.793,0.314-1.57,0.607-2.332,0.881
	c-0.76,0.273-1.503,0.527-2.228,0.766c-0.726,0.237-1.433,0.456-2.122,0.658c-0.69,0.203-1.359,0.39-2.01,0.562
	c-0.651,0.17-1.281,0.327-1.892,0.471c-0.611,0.142-1.201,0.271-1.77,0.389c-0.568,0.115-1.116,0.219-1.643,0.31
	c-0.524,0.093-1.028,0.173-1.508,0.243c-0.48,0.072-0.938,0.135-1.372,0.188c-0.433,0.053-0.844,0.098-1.228,0.135
	c-0.385,0.035-0.746,0.068-1.081,0.092c-0.334,0.021-0.646,0.041-0.928,0.053c-0.283,0.015-0.54,0.025-0.77,0.03
	c-0.23,0.004-0.433,0.007-0.608,0.007c-0.032,0-0.064,0-0.095,0c-0.031,0-0.06,0-0.089-0.003c-0.029,0-0.056,0-0.082,0
	c-0.026,0-0.052,0-0.077-0.001c-0.024,0-0.047-0.001-0.07-0.001c-0.023,0-0.044,0-0.065,0s-0.041-0.001-0.058-0.002
	c-0.019,0-0.036,0-0.052,0c-0.017-0.003-0.033-0.004-0.048-0.004c-0.014,0-0.028-0.001-0.042-0.001c-0.011,0-0.023,0-0.034,0
	c-0.01,0-0.02-0.004-0.028-0.004c0.489-1.166,1.007-2.287,1.55-3.357c0.542-1.072,1.108-2.096,1.694-3.073
	c0.584-0.979,1.188-1.912,1.806-2.802c0.617-0.89,1.247-1.737,1.887-2.542c0.639-0.802,1.285-1.566,1.935-2.289
	C10.521,30.061,11.175,29.378,11.828,28.732z M38.244,34.907c0.088-0.573,0.196-1.103,0.321-1.596
	c0.124-0.492,0.264-0.946,0.419-1.364c0.153-0.418,0.322-0.801,0.502-1.151c0.18-0.35,0.372-0.667,0.571-0.956
	c0.201-0.287,0.411-0.545,0.627-0.776c0.216-0.23,0.439-0.435,0.667-0.615c0.227-0.181,0.459-0.338,0.693-0.473
	c0.234-0.137,0.47-0.252,0.707-0.35c0.235-0.097,0.469-0.176,0.703-0.24c0.233-0.063,0.463-0.112,0.688-0.149
	c0.224-0.037,0.444-0.06,0.656-0.077c0.213-0.015,0.417-0.021,0.612-0.021c0.034,0,0.067,0,0.101,0c0.033,0,0.066,0.002,0.099,0.002
	c0.032,0,0.065,0.001,0.097,0.003c0.032,0,0.064,0.002,0.095,0.003c0.032,0.001,0.062,0.003,0.093,0.004
	c0.03,0.001,0.06,0.003,0.09,0.006c0.029,0.001,0.059,0.003,0.089,0.004c0.029,0.003,0.057,0.004,0.085,0.006
	c0.029,0.002,0.057,0.004,0.084,0.007c0.028,0.003,0.055,0.004,0.081,0.006c0.026,0.003,0.052,0.004,0.078,0.007
	c0.025,0.002,0.051,0.004,0.077,0.007c0.024,0.002,0.049,0.004,0.072,0.006c0.025,0.003,0.049,0.005,0.071,0.009
	c0.023,0.001,0.046,0.004,0.069,0.006c0.022,0.003,0.043,0.004,0.065,0.007c0.573,0.058,1.104,0.157,1.599,0.291
	c0.495,0.133,0.953,0.302,1.375,0.5c0.424,0.198,0.812,0.426,1.169,0.679c0.357,0.253,0.682,0.531,0.978,0.829
	c0.295,0.298,0.564,0.615,0.804,0.947c0.241,0.332,0.456,0.678,0.646,1.033c0.19,0.356,0.357,0.722,0.504,1.091
	c0.148,0.371,0.273,0.745,0.381,1.12c0.108,0.372,0.197,0.746,0.273,1.112c0.073,0.369,0.133,0.729,0.18,1.08
	c0.047,0.35,0.082,0.69,0.107,1.014c0.025,0.325,0.04,0.633,0.048,0.919c0.008,0.29,0.01,0.554,0.006,0.794
	c-0.003,0.242-0.012,0.453-0.02,0.635c-0.009,0.184-0.02,0.335-0.028,0.449c-0.01,0.115-0.017,0.193-0.02,0.23
	c-0.049,1.119-0.13,2.205-0.24,3.262c-0.11,1.054-0.247,2.078-0.41,3.071c-0.162,0.992-0.349,1.953-0.556,2.879
	c-0.207,0.928-0.434,1.823-0.677,2.687c-0.244,0.863-0.503,1.694-0.774,2.492c-0.272,0.796-0.555,1.562-0.847,2.293
	c-0.292,0.73-0.59,1.43-0.893,2.094c-0.302,0.666-0.607,1.295-0.913,1.891c-0.307,0.598-0.612,1.161-0.912,1.688
	c-0.301,0.531-0.596,1.025-0.883,1.484c-0.287,0.461-0.565,0.885-0.831,1.274c-0.265,0.39-0.517,0.745-0.751,1.065
	c-0.235,0.318-0.452,0.604-0.647,0.852c-0.196,0.25-0.371,0.465-0.52,0.641c-0.149,0.178-0.273,0.318-0.368,0.424
	c-0.094,0.105-0.157,0.175-0.188,0.207c-0.013-0.018-0.04-0.053-0.081-0.111c-0.041-0.057-0.095-0.137-0.161-0.237
	c-0.066-0.104-0.145-0.229-0.232-0.38c-0.088-0.152-0.186-0.329-0.294-0.533c-0.108-0.205-0.224-0.438-0.349-0.7
	c-0.125-0.264-0.257-0.556-0.395-0.88c-0.139-0.325-0.282-0.68-0.433-1.072c-0.149-0.391-0.303-0.814-0.461-1.275
	c-0.157-0.461-0.318-0.959-0.48-1.494c-0.163-0.535-0.327-1.109-0.494-1.725c-0.165-0.613-0.332-1.27-0.497-1.967
	c-0.166-0.698-0.329-1.438-0.491-2.224c-0.162-0.784-0.322-1.612-0.479-2.487c-0.156-0.877-0.31-1.801-0.457-2.771
	c-0.148-0.971-0.291-1.99-0.428-3.064c-0.136-1.068-0.266-2.191-0.389-3.367c-0.098-0.953-0.169-1.851-0.215-2.699
	c-0.045-0.848-0.064-1.645-0.059-2.396c0.003-0.75,0.032-1.454,0.081-2.111C38.085,36.095,38.155,35.48,38.244,34.907z"/>
<g>
	<path fill="#444444" d="M125.012,50h-5.128V29.263c0-0.684-0.059-1.254-0.174-1.71c-0.113-0.456-0.35-0.921-0.712-1.396
		c-0.36-0.475-0.969-0.835-1.824-1.083c-0.854-0.247-1.928-0.371-3.219-0.371c-3.002,0-4.932,0.324-5.786,0.969
		c-0.855,0.646-1.284,1.844-1.284,3.591V50h-5.129V29.263c0-0.684-0.057-1.254-0.172-1.71c-0.113-0.456-0.351-0.921-0.712-1.396
		c-0.36-0.475-0.959-0.835-1.794-1.083c-0.837-0.247-1.902-0.371-3.193-0.371c-3.039,0-5.063,0.314-6.069,0.941
		c-1.007,0.627-1.511,1.833-1.511,3.62V50h-5.13V21h5.13v3.931C88.836,22.309,91.933,21,97.596,21c4.598,0,7.466,1.252,8.607,3.759
		c0.378-1.292,1.453-2.239,3.219-2.848c1.769-0.607,3.848-0.912,6.242-0.912c3.535,0,5.976,0.653,7.326,1.964
		c1.349,1.311,2.022,3.296,2.022,5.957V50z"/>
	<path fill="#444444" d="M156,49h-4.957v-2.467c-0.42,2.129-3.193,3.467-8.322,3.467c-3.801,0-6.432-0.854-7.895-2.014
		c-1.465-1.158-2.195-3.505-2.195-7.039c0-3.078,0.684-5.196,2.053-6.355c1.367-1.159,4.008-1.738,7.922-1.738h8.266v-4.389
		c0-1.52-0.465-2.546-1.396-3.078c-0.932-0.532-2.689-0.798-5.273-0.798c-2.811,0-6.383,0.228-9.879,0.684V21.51
		c3.762-0.342,7.58-0.513,10.621-0.513c4.635,0,7.639,0.561,9.006,1.682c1.367,1.122,2.051,3.448,2.051,6.982V49z M150.871,43.57
		v-7.524h-7.922c-2.357,0-3.83,0.304-4.418,0.911c-0.59,0.609-0.883,1.995-0.883,4.162c0,1.938,0.312,3.297,0.939,4.075
		c0.627,0.779,1.947,1.168,3.961,1.168h1.025c0.988,0,1.814-0.019,2.48-0.057c0.664-0.037,1.416-0.144,2.252-0.313
		c0.834-0.171,1.473-0.455,1.908-0.855C150.652,44.738,150.871,44.217,150.871,43.57z"/>
	<path fill="#444444" d="M185.033,39.465v2.395c0,2.965-1.035,5.016-3.105,6.156c-2.072,1.141-5.045,1.984-8.922,1.984
		c-2.963,0-6.662-0.502-10.006-0.959v-3.932c4.562,0.721,8.297,1.082,10.119,1.082c2.281,0,3.99-0.218,5.131-0.654
		c1.141-0.438,1.711-1.34,1.711-2.709v-2.792c0-1.179-0.4-2.015-1.197-2.509c-0.799-0.494-2.09-0.74-3.877-0.74h-3.135
		c-2.889,0-5.072-0.6-6.555-1.796s-2.223-2.84-2.223-4.93v-2.565c0-4.332,4.104-6.498,12.312-6.498c0.91,0,3.705,0.152,8.379,0.456
		v3.705c-3.27-0.532-6.139-0.798-8.607-0.798c-2.736,0-4.59,0.267-5.559,0.798c-0.969,0.533-1.453,1.425-1.453,2.679v2.337
		c0,1.862,1.691,2.793,5.072,2.793h3.193C182.127,32.968,185.033,35.134,185.033,39.465z"/>
	<path fill="#444444" d="M209,49.27c-1.824,0.304-3.314,0.73-5.328,0.73c-3.459,0-5.871-0.873-7.238-2.07
		c-1.369-1.196-2.053-3.467-2.053-6.811V24.931H188v-3.706h6.381v-8.208h4.695v8.208H209v3.706h-9.924v16.473
		c0,1.976,0.871,3.298,1.633,3.962c0.76,0.664,2.299,0.997,4.615,0.997c0.607,0,1.547-0.151,3.676-0.456V49.27z"/>
	<path fill="#444444" d="M237.701,37h-18.525v3.662c0,1.938,0.684,3.316,2.053,4.133c1.367,0.817,3.4,1.226,6.098,1.226
		c2.623,0,5.721-0.456,9.291-1.368v3.934c-3.42,0.759-6.744,1.414-9.975,1.414c-8.436,0-12.654-3.086-12.654-9V30.113
		c0-3.092,0.971-5.505,2.908-6.95c1.938-1.444,5.035-2.166,9.291-2.166c3.988,0,6.904,0.694,8.75,2.081
		c1.842,1.388,2.764,3.829,2.764,7.324V37z M232.57,33v-4.193c0-1.672-0.512-2.822-1.539-3.448
		c-1.025-0.627-2.734-0.941-5.129-0.941c-2.279,0-3.971,0.305-5.074,0.912c-1.102,0.608-1.652,1.767-1.652,3.477V33H232.57z"/>
	<path fill="#444444" d="M258.926,25.387h-2.85c-2.357,0-4.096,0.305-5.217,0.912c-1.121,0.608-1.682,1.749-1.682,3.42V50h-5.129
		V21.567h4.846v4.503c0-1.33,0.826-2.508,2.479-3.534c1.652-1.026,3.334-1.539,5.045-1.539h2.508V25.387z"/>
</g>
</svg>
