<?xml version="1.0" encoding="utf-8"?>
<!DOCTYPE svg PUBLIC "-//W3C//DTD SVG 1.1//EN" "http://www.w3.org/Graphics/SVG/1.1/DTD/svg11.dtd">
<svg version="1.1" id="icon_joomla" xmlns="http://www.w3.org/2000/svg" xmlns:xlink="http://www.w3.org/1999/xlink" x="0px" y="0px"
	 width="24px" height="24px" viewBox="0 0 24 24" enable-background="new 0 0 24 24" xml:space="preserve">
<path id="path174" fill="#95D333" d="M3.698,11.609l-0.362-0.362C2.212,10.124,1.865,8.519,2.29,7.096
	C1.167,6.842,0.328,5.839,0.328,4.638c0-1.391,1.128-2.52,2.52-2.52C4.101,2.12,5.139,3.033,5.334,4.229
	C6.693,3.912,8.181,4.282,9.24,5.342l0.146,0.145l-1.86,1.858L7.382,7.2C6.779,6.597,5.8,6.597,5.197,7.201
	C4.592,7.807,4.593,8.787,5.193,9.388l0.364,0.363l1.859,1.857l1.967,1.965l-1.857,1.858l-1.968-1.966L3.698,11.609"/>
<path id="path176" fill="#FFC248" d="M5.778,9.531l1.968-1.967l1.859-1.857l0.363-0.362c1.119-1.119,2.714-1.471,4.132-1.055
	c0.17-1.227,1.221-2.172,2.496-2.172c1.391,0,2.52,1.128,2.52,2.52c0,1.278-0.952,2.335-2.188,2.498
	c0.405,1.412,0.052,2.995-1.06,4.108l-0.145,0.146l-1.859-1.86l0.145-0.144c0.604-0.603,0.604-1.582,0-2.185
	c-0.602-0.602-1.577-0.603-2.181,0.003l-0.363,0.362l-1.86,1.858L7.637,11.39L5.778,9.531"/>
<path id="path184" fill="#E23333" d="M14.148,18.912c-1.431,0.438-3.048,0.095-4.182-1.039L9.824,17.73l1.859-1.858l0.143,0.144
	c0.603,0.604,1.582,0.604,2.184,0.002c0.602-0.604,0.604-1.578-0.003-2.186l-0.362-0.363l-1.858-1.86L9.824,9.645l1.86-1.858
	l1.96,1.964l1.856,1.859l0.365,0.366c1.067,1.068,1.438,2.572,1.104,3.94c1.225,0.172,2.166,1.223,2.166,2.495
	c0,1.392-1.129,2.519-2.521,2.519C15.398,20.928,14.383,20.062,14.148,18.912"/>
<path id="path186" fill="#4C7FD8" d="M13.425,13.689l-1.961,1.963l-1.858,1.859L9.24,17.876c-1.073,1.075-2.586,1.438-3.96,1.099
	c-0.256,1.118-1.26,1.953-2.456,1.953c-1.391,0-2.52-1.129-2.52-2.518c0-1.191,0.828-2.189,1.938-2.453
	c-0.352-1.381,0.013-2.905,1.094-3.985l0.143-0.143l1.859,1.858L5.193,13.83c-0.603,0.604-0.603,1.58,0.001,2.188
	c0.606,0.603,1.586,0.602,2.188,0l0.364-0.363l1.857-1.857l1.964-1.967L13.425,13.689"/>
</svg>
